<mxfile host="Electron" agent="Mozilla/5.0 (Windows NT 10.0; Win64; x64) AppleWebKit/537.36 (KHTML, like Gecko) draw.io/24.7.17 Chrome/128.0.6613.36 Electron/32.0.1 Safari/537.36" version="24.7.17">
  <diagram name="Pagina-1" id="Pr2vXgUpdKGznfStpxD8">
    <mxGraphModel dx="1545" dy="484" grid="1" gridSize="10" guides="1" tooltips="1" connect="1" arrows="1" fold="1" page="1" pageScale="1" pageWidth="827" pageHeight="1169" math="0" shadow="0">
      <root>
        <mxCell id="0" />
        <mxCell id="1" parent="0" />
        <mxCell id="ffhMWzjrMcLxflxruBUi-40" value="Grocery Item" style="whiteSpace=wrap;html=1;align=center;" parent="1" vertex="1">
          <mxGeometry x="1303" y="470" width="100" height="40" as="geometry" />
        </mxCell>
        <mxCell id="ffhMWzjrMcLxflxruBUi-42" value="Recipe" style="whiteSpace=wrap;html=1;align=center;" parent="1" vertex="1">
          <mxGeometry x="968" y="483" width="100" height="40" as="geometry" />
        </mxCell>
        <mxCell id="ffhMWzjrMcLxflxruBUi-44" value="User" style="whiteSpace=wrap;html=1;align=center;" parent="1" vertex="1">
          <mxGeometry x="1131" y="920" width="100" height="40" as="geometry" />
        </mxCell>
        <mxCell id="ffhMWzjrMcLxflxruBUi-46" value="Expiration Date" style="ellipse;whiteSpace=wrap;html=1;align=center;" parent="1" vertex="1">
          <mxGeometry x="1438" y="346" width="100" height="40" as="geometry" />
        </mxCell>
        <mxCell id="ffhMWzjrMcLxflxruBUi-47" value="Name" style="ellipse;whiteSpace=wrap;html=1;align=center;fontStyle=4" parent="1" vertex="1">
          <mxGeometry x="1088" y="210" width="100" height="40" as="geometry" />
        </mxCell>
        <mxCell id="ffhMWzjrMcLxflxruBUi-48" value="Id" style="ellipse;whiteSpace=wrap;html=1;align=center;fontStyle=4" parent="1" vertex="1">
          <mxGeometry x="1478" y="416" width="100" height="40" as="geometry" />
        </mxCell>
        <mxCell id="ffhMWzjrMcLxflxruBUi-49" value="Amount" style="ellipse;whiteSpace=wrap;html=1;align=center;" parent="1" vertex="1">
          <mxGeometry x="1348" y="306" width="100" height="40" as="geometry" />
        </mxCell>
        <mxCell id="ffhMWzjrMcLxflxruBUi-50" value="" style="endArrow=none;html=1;rounded=0;" parent="1" source="ffhMWzjrMcLxflxruBUi-40" target="ffhMWzjrMcLxflxruBUi-49" edge="1">
          <mxGeometry relative="1" as="geometry">
            <mxPoint x="668" y="510" as="sourcePoint" />
            <mxPoint x="828" y="510" as="targetPoint" />
          </mxGeometry>
        </mxCell>
        <mxCell id="ffhMWzjrMcLxflxruBUi-51" value="" style="endArrow=none;html=1;rounded=0;" parent="1" source="ffhMWzjrMcLxflxruBUi-40" target="ffhMWzjrMcLxflxruBUi-46" edge="1">
          <mxGeometry relative="1" as="geometry">
            <mxPoint x="958" y="463" as="sourcePoint" />
            <mxPoint x="900" y="479" as="targetPoint" />
          </mxGeometry>
        </mxCell>
        <mxCell id="ffhMWzjrMcLxflxruBUi-52" value="" style="endArrow=none;html=1;rounded=0;" parent="1" source="ffhMWzjrMcLxflxruBUi-47" target="GWMP9Vuq-0JOM76LOCVm-1" edge="1">
          <mxGeometry relative="1" as="geometry">
            <mxPoint x="958" y="435" as="sourcePoint" />
            <mxPoint x="918" y="422" as="targetPoint" />
          </mxGeometry>
        </mxCell>
        <mxCell id="ffhMWzjrMcLxflxruBUi-53" value="" style="endArrow=none;html=1;rounded=0;" parent="1" source="ffhMWzjrMcLxflxruBUi-40" target="ffhMWzjrMcLxflxruBUi-48" edge="1">
          <mxGeometry relative="1" as="geometry">
            <mxPoint x="1001" y="400" as="sourcePoint" />
            <mxPoint x="1005" y="430" as="targetPoint" />
          </mxGeometry>
        </mxCell>
        <mxCell id="ffhMWzjrMcLxflxruBUi-58" value="Email" style="ellipse;whiteSpace=wrap;html=1;align=center;fontStyle=4" parent="1" vertex="1">
          <mxGeometry x="1201" y="990" width="100" height="40" as="geometry" />
        </mxCell>
        <mxCell id="ffhMWzjrMcLxflxruBUi-59" value="" style="endArrow=none;html=1;rounded=0;" parent="1" source="ffhMWzjrMcLxflxruBUi-44" target="ffhMWzjrMcLxflxruBUi-58" edge="1">
          <mxGeometry relative="1" as="geometry">
            <mxPoint x="1214" y="930" as="sourcePoint" />
            <mxPoint x="1259" y="937" as="targetPoint" />
          </mxGeometry>
        </mxCell>
        <mxCell id="ffhMWzjrMcLxflxruBUi-60" value="" style="endArrow=none;html=1;rounded=0;" parent="1" source="ffhMWzjrMcLxflxruBUi-44" target="ffhMWzjrMcLxflxruBUi-61" edge="1">
          <mxGeometry relative="1" as="geometry">
            <mxPoint x="1136" y="1005" as="sourcePoint" />
            <mxPoint x="1064" y="1036" as="targetPoint" />
          </mxGeometry>
        </mxCell>
        <mxCell id="ffhMWzjrMcLxflxruBUi-61" value="Password" style="ellipse;whiteSpace=wrap;html=1;align=center;" parent="1" vertex="1">
          <mxGeometry x="1082" y="990" width="100" height="40" as="geometry" />
        </mxCell>
        <mxCell id="ffhMWzjrMcLxflxruBUi-64" value="Name" style="ellipse;whiteSpace=wrap;html=1;align=center;" parent="1" vertex="1">
          <mxGeometry x="836" y="565" width="100" height="40" as="geometry" />
        </mxCell>
        <mxCell id="ffhMWzjrMcLxflxruBUi-65" value="Id" style="ellipse;whiteSpace=wrap;html=1;align=center;fontStyle=4" parent="1" vertex="1">
          <mxGeometry x="836" y="433" width="100" height="40" as="geometry" />
        </mxCell>
        <mxCell id="ffhMWzjrMcLxflxruBUi-67" value="Description" style="ellipse;whiteSpace=wrap;html=1;align=center;" parent="1" vertex="1">
          <mxGeometry x="836" y="496" width="100" height="40" as="geometry" />
        </mxCell>
        <mxCell id="aiDZA-eBD_S5gn7_g89n-2" value="" style="endArrow=none;html=1;rounded=0;" parent="1" source="ffhMWzjrMcLxflxruBUi-42" target="ffhMWzjrMcLxflxruBUi-67" edge="1">
          <mxGeometry relative="1" as="geometry">
            <mxPoint x="1021" y="533" as="sourcePoint" />
            <mxPoint x="1056" y="588" as="targetPoint" />
          </mxGeometry>
        </mxCell>
        <mxCell id="aiDZA-eBD_S5gn7_g89n-4" value="" style="endArrow=none;html=1;rounded=0;" parent="1" source="ffhMWzjrMcLxflxruBUi-42" target="ffhMWzjrMcLxflxruBUi-65" edge="1">
          <mxGeometry relative="1" as="geometry">
            <mxPoint x="978" y="533" as="sourcePoint" />
            <mxPoint x="914" y="576" as="targetPoint" />
          </mxGeometry>
        </mxCell>
        <mxCell id="aiDZA-eBD_S5gn7_g89n-14" value="" style="endArrow=none;html=1;rounded=0;" parent="1" target="aiDZA-eBD_S5gn7_g89n-5" edge="1">
          <mxGeometry relative="1" as="geometry">
            <mxPoint x="1535.3848038855635" y="626" as="sourcePoint" />
            <mxPoint x="1178" y="390" as="targetPoint" />
          </mxGeometry>
        </mxCell>
        <mxCell id="aiDZA-eBD_S5gn7_g89n-15" value="" style="endArrow=none;html=1;rounded=0;" parent="1" target="aiDZA-eBD_S5gn7_g89n-7" edge="1">
          <mxGeometry relative="1" as="geometry">
            <mxPoint x="1565.2199725791115" y="626" as="sourcePoint" />
            <mxPoint x="1070" y="548" as="targetPoint" />
          </mxGeometry>
        </mxCell>
        <mxCell id="aiDZA-eBD_S5gn7_g89n-26" value="Bought" style="shape=rhombus;perimeter=rhombusPerimeter;whiteSpace=wrap;html=1;align=center;" parent="1" vertex="1">
          <mxGeometry x="1228" y="555" width="120" height="60" as="geometry" />
        </mxCell>
        <mxCell id="aiDZA-eBD_S5gn7_g89n-29" value="(0,N)" style="endArrow=none;html=1;rounded=0;" parent="1" source="aiDZA-eBD_S5gn7_g89n-26" target="GWMP9Vuq-0JOM76LOCVm-134" edge="1">
          <mxGeometry relative="1" as="geometry">
            <mxPoint x="1191" y="741" as="sourcePoint" />
            <mxPoint x="1234.8181818181824" y="720" as="targetPoint" />
          </mxGeometry>
        </mxCell>
        <mxCell id="aiDZA-eBD_S5gn7_g89n-30" value="(1,1)" style="endArrow=none;html=1;rounded=0;" parent="1" source="ffhMWzjrMcLxflxruBUi-40" target="aiDZA-eBD_S5gn7_g89n-26" edge="1">
          <mxGeometry relative="1" as="geometry">
            <mxPoint x="1339" y="607" as="sourcePoint" />
            <mxPoint x="1349" y="652" as="targetPoint" />
          </mxGeometry>
        </mxCell>
        <mxCell id="aiDZA-eBD_S5gn7_g89n-31" value="" style="endArrow=none;html=1;rounded=0;" parent="1" source="ffhMWzjrMcLxflxruBUi-42" target="ffhMWzjrMcLxflxruBUi-64" edge="1">
          <mxGeometry relative="1" as="geometry">
            <mxPoint x="1002" y="533" as="sourcePoint" />
            <mxPoint x="974" y="627" as="targetPoint" />
          </mxGeometry>
        </mxCell>
        <mxCell id="aiDZA-eBD_S5gn7_g89n-35" value="(0,N)" style="endArrow=none;html=1;rounded=0;" parent="1" source="ffhMWzjrMcLxflxruBUi-41" edge="1">
          <mxGeometry relative="1" as="geometry">
            <mxPoint x="1437" y="513" as="sourcePoint" />
            <mxPoint x="1499.739130434783" y="559.1304347826087" as="targetPoint" />
          </mxGeometry>
        </mxCell>
        <mxCell id="aiDZA-eBD_S5gn7_g89n-36" value="Saved recipe" style="shape=rhombus;perimeter=rhombusPerimeter;whiteSpace=wrap;html=1;align=center;" parent="1" vertex="1">
          <mxGeometry x="1020" y="565" width="120" height="60" as="geometry" />
        </mxCell>
        <mxCell id="aiDZA-eBD_S5gn7_g89n-38" value="(0,N)" style="endArrow=none;html=1;rounded=0;" parent="1" source="GWMP9Vuq-0JOM76LOCVm-134" target="aiDZA-eBD_S5gn7_g89n-36" edge="1">
          <mxGeometry relative="1" as="geometry">
            <mxPoint x="1193.645161290323" y="720" as="sourcePoint" />
            <mxPoint x="1192" y="552" as="targetPoint" />
          </mxGeometry>
        </mxCell>
        <mxCell id="aiDZA-eBD_S5gn7_g89n-39" value="(1,1)" style="endArrow=none;html=1;rounded=0;" parent="1" source="aiDZA-eBD_S5gn7_g89n-36" target="ffhMWzjrMcLxflxruBUi-42" edge="1">
          <mxGeometry relative="1" as="geometry">
            <mxPoint x="1317" y="652" as="sourcePoint" />
            <mxPoint x="1197" y="586" as="targetPoint" />
          </mxGeometry>
        </mxCell>
        <mxCell id="wn_NGkWMPnfutVv6U4E--1" value="Requires" style="shape=rhombus;perimeter=rhombusPerimeter;whiteSpace=wrap;html=1;align=center;" parent="1" vertex="1">
          <mxGeometry x="958" y="360" width="120" height="60" as="geometry" />
        </mxCell>
        <mxCell id="wn_NGkWMPnfutVv6U4E--2" value="(1,N)" style="endArrow=none;html=1;rounded=0;" parent="1" source="wn_NGkWMPnfutVv6U4E--1" target="ffhMWzjrMcLxflxruBUi-42" edge="1">
          <mxGeometry relative="1" as="geometry">
            <mxPoint x="1100" y="619" as="sourcePoint" />
            <mxPoint x="1025" y="533" as="targetPoint" />
          </mxGeometry>
        </mxCell>
        <mxCell id="wn_NGkWMPnfutVv6U4E--3" value="(0,N)" style="endArrow=none;html=1;rounded=0;" parent="1" source="GWMP9Vuq-0JOM76LOCVm-1" target="wn_NGkWMPnfutVv6U4E--1" edge="1">
          <mxGeometry x="-0.0045" relative="1" as="geometry">
            <mxPoint x="1121" y="516" as="sourcePoint" />
            <mxPoint x="1058" y="514" as="targetPoint" />
            <mxPoint as="offset" />
          </mxGeometry>
        </mxCell>
        <mxCell id="wn_NGkWMPnfutVv6U4E--22" value="Family" style="shape=table;startSize=30;container=1;collapsible=1;childLayout=tableLayout;fixedRows=1;rowLines=0;fontStyle=1;align=center;resizeLast=1;html=1;" parent="1" vertex="1">
          <mxGeometry x="300" y="760" width="230" height="90" as="geometry" />
        </mxCell>
        <mxCell id="wn_NGkWMPnfutVv6U4E--23" value="" style="shape=tableRow;horizontal=0;startSize=0;swimlaneHead=0;swimlaneBody=0;fillColor=none;collapsible=0;dropTarget=0;points=[[0,0.5],[1,0.5]];portConstraint=eastwest;top=0;left=0;right=0;bottom=1;" parent="wn_NGkWMPnfutVv6U4E--22" vertex="1">
          <mxGeometry y="30" width="230" height="30" as="geometry" />
        </mxCell>
        <mxCell id="wn_NGkWMPnfutVv6U4E--24" value="PK" style="shape=partialRectangle;connectable=0;fillColor=none;top=0;left=0;bottom=0;right=0;fontStyle=1;overflow=hidden;whiteSpace=wrap;html=1;" parent="wn_NGkWMPnfutVv6U4E--23" vertex="1">
          <mxGeometry width="50" height="30" as="geometry">
            <mxRectangle width="50" height="30" as="alternateBounds" />
          </mxGeometry>
        </mxCell>
        <mxCell id="wn_NGkWMPnfutVv6U4E--25" value="Id" style="shape=partialRectangle;connectable=0;fillColor=none;top=0;left=0;bottom=0;right=0;align=left;spacingLeft=6;fontStyle=5;overflow=hidden;whiteSpace=wrap;html=1;" parent="wn_NGkWMPnfutVv6U4E--23" vertex="1">
          <mxGeometry x="50" width="180" height="30" as="geometry">
            <mxRectangle width="180" height="30" as="alternateBounds" />
          </mxGeometry>
        </mxCell>
        <mxCell id="wn_NGkWMPnfutVv6U4E--29" value="" style="shape=tableRow;horizontal=0;startSize=0;swimlaneHead=0;swimlaneBody=0;fillColor=none;collapsible=0;dropTarget=0;points=[[0,0.5],[1,0.5]];portConstraint=eastwest;top=0;left=0;right=0;bottom=0;" parent="wn_NGkWMPnfutVv6U4E--22" vertex="1">
          <mxGeometry y="60" width="230" height="30" as="geometry" />
        </mxCell>
        <mxCell id="wn_NGkWMPnfutVv6U4E--30" value="" style="shape=partialRectangle;connectable=0;fillColor=none;top=0;left=0;bottom=0;right=0;editable=1;overflow=hidden;whiteSpace=wrap;html=1;" parent="wn_NGkWMPnfutVv6U4E--29" vertex="1">
          <mxGeometry width="50" height="30" as="geometry">
            <mxRectangle width="50" height="30" as="alternateBounds" />
          </mxGeometry>
        </mxCell>
        <mxCell id="wn_NGkWMPnfutVv6U4E--31" value="Name" style="shape=partialRectangle;connectable=0;fillColor=none;top=0;left=0;bottom=0;right=0;align=left;spacingLeft=6;overflow=hidden;whiteSpace=wrap;html=1;" parent="wn_NGkWMPnfutVv6U4E--29" vertex="1">
          <mxGeometry x="50" width="180" height="30" as="geometry">
            <mxRectangle width="180" height="30" as="alternateBounds" />
          </mxGeometry>
        </mxCell>
        <mxCell id="wn_NGkWMPnfutVv6U4E--38" value="Grocery Item" style="shape=table;startSize=30;container=1;collapsible=1;childLayout=tableLayout;fixedRows=1;rowLines=0;fontStyle=1;align=center;resizeLast=1;html=1;" parent="1" vertex="1">
          <mxGeometry x="550" y="450" width="230" height="180" as="geometry" />
        </mxCell>
        <mxCell id="wn_NGkWMPnfutVv6U4E--39" value="" style="shape=tableRow;horizontal=0;startSize=0;swimlaneHead=0;swimlaneBody=0;fillColor=none;collapsible=0;dropTarget=0;points=[[0,0.5],[1,0.5]];portConstraint=eastwest;top=0;left=0;right=0;bottom=1;" parent="wn_NGkWMPnfutVv6U4E--38" vertex="1">
          <mxGeometry y="30" width="230" height="30" as="geometry" />
        </mxCell>
        <mxCell id="wn_NGkWMPnfutVv6U4E--40" value="PK" style="shape=partialRectangle;connectable=0;fillColor=none;top=0;left=0;bottom=0;right=0;fontStyle=1;overflow=hidden;whiteSpace=wrap;html=1;" parent="wn_NGkWMPnfutVv6U4E--39" vertex="1">
          <mxGeometry width="50" height="30" as="geometry">
            <mxRectangle width="50" height="30" as="alternateBounds" />
          </mxGeometry>
        </mxCell>
        <mxCell id="wn_NGkWMPnfutVv6U4E--41" value="Id" style="shape=partialRectangle;connectable=0;fillColor=none;top=0;left=0;bottom=0;right=0;align=left;spacingLeft=6;fontStyle=5;overflow=hidden;whiteSpace=wrap;html=1;" parent="wn_NGkWMPnfutVv6U4E--39" vertex="1">
          <mxGeometry x="50" width="180" height="30" as="geometry">
            <mxRectangle width="180" height="30" as="alternateBounds" />
          </mxGeometry>
        </mxCell>
        <mxCell id="wn_NGkWMPnfutVv6U4E--48" value="" style="shape=tableRow;horizontal=0;startSize=0;swimlaneHead=0;swimlaneBody=0;fillColor=none;collapsible=0;dropTarget=0;points=[[0,0.5],[1,0.5]];portConstraint=eastwest;top=0;left=0;right=0;bottom=0;" parent="wn_NGkWMPnfutVv6U4E--38" vertex="1">
          <mxGeometry y="60" width="230" height="30" as="geometry" />
        </mxCell>
        <mxCell id="wn_NGkWMPnfutVv6U4E--49" value="" style="shape=partialRectangle;connectable=0;fillColor=none;top=0;left=0;bottom=0;right=0;editable=1;overflow=hidden;whiteSpace=wrap;html=1;" parent="wn_NGkWMPnfutVv6U4E--48" vertex="1">
          <mxGeometry width="50" height="30" as="geometry">
            <mxRectangle width="50" height="30" as="alternateBounds" />
          </mxGeometry>
        </mxCell>
        <mxCell id="wn_NGkWMPnfutVv6U4E--50" value="Amount" style="shape=partialRectangle;connectable=0;fillColor=none;top=0;left=0;bottom=0;right=0;align=left;spacingLeft=6;overflow=hidden;whiteSpace=wrap;html=1;" parent="wn_NGkWMPnfutVv6U4E--48" vertex="1">
          <mxGeometry x="50" width="180" height="30" as="geometry">
            <mxRectangle width="180" height="30" as="alternateBounds" />
          </mxGeometry>
        </mxCell>
        <mxCell id="wn_NGkWMPnfutVv6U4E--92" value="" style="shape=tableRow;horizontal=0;startSize=0;swimlaneHead=0;swimlaneBody=0;fillColor=none;collapsible=0;dropTarget=0;points=[[0,0.5],[1,0.5]];portConstraint=eastwest;top=0;left=0;right=0;bottom=0;" parent="wn_NGkWMPnfutVv6U4E--38" vertex="1">
          <mxGeometry y="90" width="230" height="30" as="geometry" />
        </mxCell>
        <mxCell id="wn_NGkWMPnfutVv6U4E--93" value="" style="shape=partialRectangle;connectable=0;fillColor=none;top=0;left=0;bottom=0;right=0;editable=1;overflow=hidden;whiteSpace=wrap;html=1;" parent="wn_NGkWMPnfutVv6U4E--92" vertex="1">
          <mxGeometry width="50" height="30" as="geometry">
            <mxRectangle width="50" height="30" as="alternateBounds" />
          </mxGeometry>
        </mxCell>
        <mxCell id="wn_NGkWMPnfutVv6U4E--94" value="Expiration Date" style="shape=partialRectangle;connectable=0;fillColor=none;top=0;left=0;bottom=0;right=0;align=left;spacingLeft=6;overflow=hidden;whiteSpace=wrap;html=1;" parent="wn_NGkWMPnfutVv6U4E--92" vertex="1">
          <mxGeometry x="50" width="180" height="30" as="geometry">
            <mxRectangle width="180" height="30" as="alternateBounds" />
          </mxGeometry>
        </mxCell>
        <mxCell id="wn_NGkWMPnfutVv6U4E--149" value="" style="shape=tableRow;horizontal=0;startSize=0;swimlaneHead=0;swimlaneBody=0;fillColor=none;collapsible=0;dropTarget=0;points=[[0,0.5],[1,0.5]];portConstraint=eastwest;top=0;left=0;right=0;bottom=0;" parent="wn_NGkWMPnfutVv6U4E--38" vertex="1">
          <mxGeometry y="120" width="230" height="30" as="geometry" />
        </mxCell>
        <mxCell id="wn_NGkWMPnfutVv6U4E--150" value="FK1" style="shape=partialRectangle;connectable=0;fillColor=none;top=0;left=0;bottom=0;right=0;editable=1;overflow=hidden;whiteSpace=wrap;html=1;" parent="wn_NGkWMPnfutVv6U4E--149" vertex="1">
          <mxGeometry width="50" height="30" as="geometry">
            <mxRectangle width="50" height="30" as="alternateBounds" />
          </mxGeometry>
        </mxCell>
        <mxCell id="wn_NGkWMPnfutVv6U4E--151" value="FamilyId" style="shape=partialRectangle;connectable=0;fillColor=none;top=0;left=0;bottom=0;right=0;align=left;spacingLeft=6;overflow=hidden;whiteSpace=wrap;html=1;" parent="wn_NGkWMPnfutVv6U4E--149" vertex="1">
          <mxGeometry x="50" width="180" height="30" as="geometry">
            <mxRectangle width="180" height="30" as="alternateBounds" />
          </mxGeometry>
        </mxCell>
        <mxCell id="GWMP9Vuq-0JOM76LOCVm-93" value="" style="shape=tableRow;horizontal=0;startSize=0;swimlaneHead=0;swimlaneBody=0;fillColor=none;collapsible=0;dropTarget=0;points=[[0,0.5],[1,0.5]];portConstraint=eastwest;top=0;left=0;right=0;bottom=0;" vertex="1" parent="wn_NGkWMPnfutVv6U4E--38">
          <mxGeometry y="150" width="230" height="30" as="geometry" />
        </mxCell>
        <mxCell id="GWMP9Vuq-0JOM76LOCVm-94" value="FK2" style="shape=partialRectangle;connectable=0;fillColor=none;top=0;left=0;bottom=0;right=0;editable=1;overflow=hidden;whiteSpace=wrap;html=1;" vertex="1" parent="GWMP9Vuq-0JOM76LOCVm-93">
          <mxGeometry width="50" height="30" as="geometry">
            <mxRectangle width="50" height="30" as="alternateBounds" />
          </mxGeometry>
        </mxCell>
        <mxCell id="GWMP9Vuq-0JOM76LOCVm-95" value="ProductName" style="shape=partialRectangle;connectable=0;fillColor=none;top=0;left=0;bottom=0;right=0;align=left;spacingLeft=6;overflow=hidden;whiteSpace=wrap;html=1;" vertex="1" parent="GWMP9Vuq-0JOM76LOCVm-93">
          <mxGeometry x="50" width="180" height="30" as="geometry">
            <mxRectangle width="180" height="30" as="alternateBounds" />
          </mxGeometry>
        </mxCell>
        <mxCell id="wn_NGkWMPnfutVv6U4E--82" value="Recipe" style="shape=table;startSize=30;container=1;collapsible=1;childLayout=tableLayout;fixedRows=1;rowLines=0;fontStyle=1;align=center;resizeLast=1;html=1;" parent="1" vertex="1">
          <mxGeometry x="10" y="447" width="230" height="150" as="geometry" />
        </mxCell>
        <mxCell id="wn_NGkWMPnfutVv6U4E--83" value="" style="shape=tableRow;horizontal=0;startSize=0;swimlaneHead=0;swimlaneBody=0;fillColor=none;collapsible=0;dropTarget=0;points=[[0,0.5],[1,0.5]];portConstraint=eastwest;top=0;left=0;right=0;bottom=1;" parent="wn_NGkWMPnfutVv6U4E--82" vertex="1">
          <mxGeometry y="30" width="230" height="30" as="geometry" />
        </mxCell>
        <mxCell id="wn_NGkWMPnfutVv6U4E--84" value="PK" style="shape=partialRectangle;connectable=0;fillColor=none;top=0;left=0;bottom=0;right=0;fontStyle=1;overflow=hidden;whiteSpace=wrap;html=1;" parent="wn_NGkWMPnfutVv6U4E--83" vertex="1">
          <mxGeometry width="50" height="30" as="geometry">
            <mxRectangle width="50" height="30" as="alternateBounds" />
          </mxGeometry>
        </mxCell>
        <mxCell id="wn_NGkWMPnfutVv6U4E--85" value="Id" style="shape=partialRectangle;connectable=0;fillColor=none;top=0;left=0;bottom=0;right=0;align=left;spacingLeft=6;fontStyle=5;overflow=hidden;whiteSpace=wrap;html=1;" parent="wn_NGkWMPnfutVv6U4E--83" vertex="1">
          <mxGeometry x="50" width="180" height="30" as="geometry">
            <mxRectangle width="180" height="30" as="alternateBounds" />
          </mxGeometry>
        </mxCell>
        <mxCell id="wn_NGkWMPnfutVv6U4E--86" value="" style="shape=tableRow;horizontal=0;startSize=0;swimlaneHead=0;swimlaneBody=0;fillColor=none;collapsible=0;dropTarget=0;points=[[0,0.5],[1,0.5]];portConstraint=eastwest;top=0;left=0;right=0;bottom=0;" parent="wn_NGkWMPnfutVv6U4E--82" vertex="1">
          <mxGeometry y="60" width="230" height="30" as="geometry" />
        </mxCell>
        <mxCell id="wn_NGkWMPnfutVv6U4E--87" value="" style="shape=partialRectangle;connectable=0;fillColor=none;top=0;left=0;bottom=0;right=0;editable=1;overflow=hidden;whiteSpace=wrap;html=1;" parent="wn_NGkWMPnfutVv6U4E--86" vertex="1">
          <mxGeometry width="50" height="30" as="geometry">
            <mxRectangle width="50" height="30" as="alternateBounds" />
          </mxGeometry>
        </mxCell>
        <mxCell id="wn_NGkWMPnfutVv6U4E--88" value="Name" style="shape=partialRectangle;connectable=0;fillColor=none;top=0;left=0;bottom=0;right=0;align=left;spacingLeft=6;overflow=hidden;whiteSpace=wrap;html=1;" parent="wn_NGkWMPnfutVv6U4E--86" vertex="1">
          <mxGeometry x="50" width="180" height="30" as="geometry">
            <mxRectangle width="180" height="30" as="alternateBounds" />
          </mxGeometry>
        </mxCell>
        <mxCell id="wn_NGkWMPnfutVv6U4E--89" value="" style="shape=tableRow;horizontal=0;startSize=0;swimlaneHead=0;swimlaneBody=0;fillColor=none;collapsible=0;dropTarget=0;points=[[0,0.5],[1,0.5]];portConstraint=eastwest;top=0;left=0;right=0;bottom=0;" parent="wn_NGkWMPnfutVv6U4E--82" vertex="1">
          <mxGeometry y="90" width="230" height="30" as="geometry" />
        </mxCell>
        <mxCell id="wn_NGkWMPnfutVv6U4E--90" value="" style="shape=partialRectangle;connectable=0;fillColor=none;top=0;left=0;bottom=0;right=0;editable=1;overflow=hidden;whiteSpace=wrap;html=1;" parent="wn_NGkWMPnfutVv6U4E--89" vertex="1">
          <mxGeometry width="50" height="30" as="geometry">
            <mxRectangle width="50" height="30" as="alternateBounds" />
          </mxGeometry>
        </mxCell>
        <mxCell id="wn_NGkWMPnfutVv6U4E--91" value="Description" style="shape=partialRectangle;connectable=0;fillColor=none;top=0;left=0;bottom=0;right=0;align=left;spacingLeft=6;overflow=hidden;whiteSpace=wrap;html=1;" parent="wn_NGkWMPnfutVv6U4E--89" vertex="1">
          <mxGeometry x="50" width="180" height="30" as="geometry">
            <mxRectangle width="180" height="30" as="alternateBounds" />
          </mxGeometry>
        </mxCell>
        <mxCell id="wn_NGkWMPnfutVv6U4E--152" value="" style="shape=tableRow;horizontal=0;startSize=0;swimlaneHead=0;swimlaneBody=0;fillColor=none;collapsible=0;dropTarget=0;points=[[0,0.5],[1,0.5]];portConstraint=eastwest;top=0;left=0;right=0;bottom=0;" parent="wn_NGkWMPnfutVv6U4E--82" vertex="1">
          <mxGeometry y="120" width="230" height="30" as="geometry" />
        </mxCell>
        <mxCell id="wn_NGkWMPnfutVv6U4E--153" value="FK1" style="shape=partialRectangle;connectable=0;fillColor=none;top=0;left=0;bottom=0;right=0;editable=1;overflow=hidden;whiteSpace=wrap;html=1;" parent="wn_NGkWMPnfutVv6U4E--152" vertex="1">
          <mxGeometry width="50" height="30" as="geometry">
            <mxRectangle width="50" height="30" as="alternateBounds" />
          </mxGeometry>
        </mxCell>
        <mxCell id="wn_NGkWMPnfutVv6U4E--154" value="FamilyId" style="shape=partialRectangle;connectable=0;fillColor=none;top=0;left=0;bottom=0;right=0;align=left;spacingLeft=6;overflow=hidden;whiteSpace=wrap;html=1;" parent="wn_NGkWMPnfutVv6U4E--152" vertex="1">
          <mxGeometry x="50" width="180" height="30" as="geometry">
            <mxRectangle width="180" height="30" as="alternateBounds" />
          </mxGeometry>
        </mxCell>
        <mxCell id="wn_NGkWMPnfutVv6U4E--142" value="" style="edgeStyle=entityRelationEdgeStyle;fontSize=12;html=1;endArrow=ERoneToMany;startArrow=ERmandOne;rounded=0;" parent="1" source="wn_NGkWMPnfutVv6U4E--83" target="GWMP9Vuq-0JOM76LOCVm-97" edge="1">
          <mxGeometry width="100" height="100" relative="1" as="geometry">
            <mxPoint x="390.00000000000045" y="442.99999999999994" as="sourcePoint" />
            <mxPoint x="449.99999999999955" y="442.99999999999994" as="targetPoint" />
          </mxGeometry>
        </mxCell>
        <mxCell id="wn_NGkWMPnfutVv6U4E--143" value="" style="edgeStyle=entityRelationEdgeStyle;fontSize=12;html=1;endArrow=ERzeroToMany;startArrow=ERmandOne;rounded=0;" parent="1" source="GWMP9Vuq-0JOM76LOCVm-77" target="GWMP9Vuq-0JOM76LOCVm-93" edge="1">
          <mxGeometry width="100" height="100" relative="1" as="geometry">
            <mxPoint x="629.9999999999995" y="320" as="sourcePoint" />
            <mxPoint x="569.9999999999995" y="350" as="targetPoint" />
            <Array as="points">
              <mxPoint x="810" y="380" />
              <mxPoint x="780" y="440" />
              <mxPoint x="590" y="590" />
            </Array>
          </mxGeometry>
        </mxCell>
        <mxCell id="wn_NGkWMPnfutVv6U4E--155" value="" style="edgeStyle=entityRelationEdgeStyle;fontSize=12;html=1;endArrow=ERzeroToMany;startArrow=ERmandOne;rounded=0;exitX=-0.001;exitY=0.304;exitDx=0;exitDy=0;exitPerimeter=0;" parent="1" source="wn_NGkWMPnfutVv6U4E--23" target="wn_NGkWMPnfutVv6U4E--152" edge="1">
          <mxGeometry width="100" height="100" relative="1" as="geometry">
            <mxPoint x="260" y="746" as="sourcePoint" />
            <mxPoint x="200" y="711" as="targetPoint" />
          </mxGeometry>
        </mxCell>
        <mxCell id="GWMP9Vuq-0JOM76LOCVm-1" value="Product" style="whiteSpace=wrap;html=1;align=center;" vertex="1" parent="1">
          <mxGeometry x="1088" y="310" width="100" height="40" as="geometry" />
        </mxCell>
        <mxCell id="GWMP9Vuq-0JOM76LOCVm-61" value="Is Of Type" style="shape=rhombus;perimeter=rhombusPerimeter;whiteSpace=wrap;html=1;align=center;" vertex="1" parent="1">
          <mxGeometry x="1179" y="389" width="120" height="54" as="geometry" />
        </mxCell>
        <mxCell id="GWMP9Vuq-0JOM76LOCVm-63" value="(0,N)" style="endArrow=none;html=1;rounded=0;" edge="1" parent="1" source="GWMP9Vuq-0JOM76LOCVm-61" target="GWMP9Vuq-0JOM76LOCVm-1">
          <mxGeometry relative="1" as="geometry">
            <mxPoint x="1139" y="409" as="sourcePoint" />
            <mxPoint x="1081" y="443" as="targetPoint" />
          </mxGeometry>
        </mxCell>
        <mxCell id="GWMP9Vuq-0JOM76LOCVm-64" value="(1,1)" style="endArrow=none;html=1;rounded=0;" edge="1" parent="1" source="ffhMWzjrMcLxflxruBUi-40" target="GWMP9Vuq-0JOM76LOCVm-61">
          <mxGeometry relative="1" as="geometry">
            <mxPoint x="1221" y="414" as="sourcePoint" />
            <mxPoint x="1165" y="350" as="targetPoint" />
          </mxGeometry>
        </mxCell>
        <mxCell id="GWMP9Vuq-0JOM76LOCVm-65" value="Amount" style="ellipse;whiteSpace=wrap;html=1;align=center;" vertex="1" parent="1">
          <mxGeometry x="893" y="300" width="100" height="40" as="geometry" />
        </mxCell>
        <mxCell id="GWMP9Vuq-0JOM76LOCVm-66" value="" style="endArrow=none;html=1;rounded=0;" edge="1" parent="1" source="wn_NGkWMPnfutVv6U4E--1" target="GWMP9Vuq-0JOM76LOCVm-65">
          <mxGeometry relative="1" as="geometry">
            <mxPoint x="1000" y="533" as="sourcePoint" />
            <mxPoint x="932" y="583" as="targetPoint" />
          </mxGeometry>
        </mxCell>
        <mxCell id="GWMP9Vuq-0JOM76LOCVm-70" value="Storage Name" style="ellipse;whiteSpace=wrap;html=1;align=center;" vertex="1" parent="1">
          <mxGeometry x="1478" y="505" width="100" height="40" as="geometry" />
        </mxCell>
        <mxCell id="GWMP9Vuq-0JOM76LOCVm-71" value="" style="endArrow=none;html=1;rounded=0;" edge="1" parent="1" source="ffhMWzjrMcLxflxruBUi-40" target="GWMP9Vuq-0JOM76LOCVm-70">
          <mxGeometry relative="1" as="geometry">
            <mxPoint x="1385" y="480" as="sourcePoint" />
            <mxPoint x="1478" y="394" as="targetPoint" />
          </mxGeometry>
        </mxCell>
        <mxCell id="GWMP9Vuq-0JOM76LOCVm-76" value="Product" style="shape=table;startSize=30;container=1;collapsible=1;childLayout=tableLayout;fixedRows=1;rowLines=0;fontStyle=1;align=center;resizeLast=1;html=1;" vertex="1" parent="1">
          <mxGeometry x="550" y="326" width="230" height="60" as="geometry" />
        </mxCell>
        <mxCell id="GWMP9Vuq-0JOM76LOCVm-77" value="" style="shape=tableRow;horizontal=0;startSize=0;swimlaneHead=0;swimlaneBody=0;fillColor=none;collapsible=0;dropTarget=0;points=[[0,0.5],[1,0.5]];portConstraint=eastwest;top=0;left=0;right=0;bottom=1;" vertex="1" parent="GWMP9Vuq-0JOM76LOCVm-76">
          <mxGeometry y="30" width="230" height="30" as="geometry" />
        </mxCell>
        <mxCell id="GWMP9Vuq-0JOM76LOCVm-78" value="PK" style="shape=partialRectangle;connectable=0;fillColor=none;top=0;left=0;bottom=0;right=0;fontStyle=1;overflow=hidden;whiteSpace=wrap;html=1;" vertex="1" parent="GWMP9Vuq-0JOM76LOCVm-77">
          <mxGeometry width="50" height="30" as="geometry">
            <mxRectangle width="50" height="30" as="alternateBounds" />
          </mxGeometry>
        </mxCell>
        <mxCell id="GWMP9Vuq-0JOM76LOCVm-79" value="Name" style="shape=partialRectangle;connectable=0;fillColor=none;top=0;left=0;bottom=0;right=0;align=left;spacingLeft=6;fontStyle=5;overflow=hidden;whiteSpace=wrap;html=1;" vertex="1" parent="GWMP9Vuq-0JOM76LOCVm-77">
          <mxGeometry x="50" width="180" height="30" as="geometry">
            <mxRectangle width="180" height="30" as="alternateBounds" />
          </mxGeometry>
        </mxCell>
        <mxCell id="GWMP9Vuq-0JOM76LOCVm-92" value="" style="edgeStyle=entityRelationEdgeStyle;fontSize=12;html=1;endArrow=ERzeroToMany;startArrow=ERmandOne;rounded=0;exitX=1;exitY=0.254;exitDx=0;exitDy=0;exitPerimeter=0;" edge="1" parent="1" source="wn_NGkWMPnfutVv6U4E--23" target="wn_NGkWMPnfutVv6U4E--149">
          <mxGeometry width="100" height="100" relative="1" as="geometry">
            <mxPoint x="460" y="935" as="sourcePoint" />
            <mxPoint x="401" y="605" as="targetPoint" />
          </mxGeometry>
        </mxCell>
        <mxCell id="GWMP9Vuq-0JOM76LOCVm-96" value="Recipe Requires Product" style="shape=table;startSize=30;container=1;collapsible=1;childLayout=tableLayout;fixedRows=1;rowLines=0;fontStyle=1;align=center;resizeLast=1;html=1;whiteSpace=wrap;" vertex="1" parent="1">
          <mxGeometry x="300" y="296" width="180" height="120" as="geometry" />
        </mxCell>
        <mxCell id="GWMP9Vuq-0JOM76LOCVm-97" value="" style="shape=tableRow;horizontal=0;startSize=0;swimlaneHead=0;swimlaneBody=0;fillColor=none;collapsible=0;dropTarget=0;points=[[0,0.5],[1,0.5]];portConstraint=eastwest;top=0;left=0;right=0;bottom=0;html=1;" vertex="1" parent="GWMP9Vuq-0JOM76LOCVm-96">
          <mxGeometry y="30" width="180" height="30" as="geometry" />
        </mxCell>
        <mxCell id="GWMP9Vuq-0JOM76LOCVm-98" value="PK,FK1" style="shape=partialRectangle;connectable=0;fillColor=none;top=0;left=0;bottom=0;right=0;fontStyle=1;overflow=hidden;html=1;whiteSpace=wrap;" vertex="1" parent="GWMP9Vuq-0JOM76LOCVm-97">
          <mxGeometry width="60" height="30" as="geometry">
            <mxRectangle width="60" height="30" as="alternateBounds" />
          </mxGeometry>
        </mxCell>
        <mxCell id="GWMP9Vuq-0JOM76LOCVm-99" value="RecipeId" style="shape=partialRectangle;connectable=0;fillColor=none;top=0;left=0;bottom=0;right=0;align=left;spacingLeft=6;fontStyle=5;overflow=hidden;html=1;whiteSpace=wrap;" vertex="1" parent="GWMP9Vuq-0JOM76LOCVm-97">
          <mxGeometry x="60" width="120" height="30" as="geometry">
            <mxRectangle width="120" height="30" as="alternateBounds" />
          </mxGeometry>
        </mxCell>
        <mxCell id="GWMP9Vuq-0JOM76LOCVm-100" value="" style="shape=tableRow;horizontal=0;startSize=0;swimlaneHead=0;swimlaneBody=0;fillColor=none;collapsible=0;dropTarget=0;points=[[0,0.5],[1,0.5]];portConstraint=eastwest;top=0;left=0;right=0;bottom=1;html=1;" vertex="1" parent="GWMP9Vuq-0JOM76LOCVm-96">
          <mxGeometry y="60" width="180" height="30" as="geometry" />
        </mxCell>
        <mxCell id="GWMP9Vuq-0JOM76LOCVm-101" value="PK,FK2" style="shape=partialRectangle;connectable=0;fillColor=none;top=0;left=0;bottom=0;right=0;fontStyle=1;overflow=hidden;html=1;whiteSpace=wrap;" vertex="1" parent="GWMP9Vuq-0JOM76LOCVm-100">
          <mxGeometry width="60" height="30" as="geometry">
            <mxRectangle width="60" height="30" as="alternateBounds" />
          </mxGeometry>
        </mxCell>
        <mxCell id="GWMP9Vuq-0JOM76LOCVm-102" value="ProductName" style="shape=partialRectangle;connectable=0;fillColor=none;top=0;left=0;bottom=0;right=0;align=left;spacingLeft=6;fontStyle=5;overflow=hidden;html=1;whiteSpace=wrap;" vertex="1" parent="GWMP9Vuq-0JOM76LOCVm-100">
          <mxGeometry x="60" width="120" height="30" as="geometry">
            <mxRectangle width="120" height="30" as="alternateBounds" />
          </mxGeometry>
        </mxCell>
        <mxCell id="GWMP9Vuq-0JOM76LOCVm-103" value="" style="shape=tableRow;horizontal=0;startSize=0;swimlaneHead=0;swimlaneBody=0;fillColor=none;collapsible=0;dropTarget=0;points=[[0,0.5],[1,0.5]];portConstraint=eastwest;top=0;left=0;right=0;bottom=0;html=1;" vertex="1" parent="GWMP9Vuq-0JOM76LOCVm-96">
          <mxGeometry y="90" width="180" height="30" as="geometry" />
        </mxCell>
        <mxCell id="GWMP9Vuq-0JOM76LOCVm-104" value="" style="shape=partialRectangle;connectable=0;fillColor=none;top=0;left=0;bottom=0;right=0;editable=1;overflow=hidden;html=1;whiteSpace=wrap;" vertex="1" parent="GWMP9Vuq-0JOM76LOCVm-103">
          <mxGeometry width="60" height="30" as="geometry">
            <mxRectangle width="60" height="30" as="alternateBounds" />
          </mxGeometry>
        </mxCell>
        <mxCell id="GWMP9Vuq-0JOM76LOCVm-105" value="Amount" style="shape=partialRectangle;connectable=0;fillColor=none;top=0;left=0;bottom=0;right=0;align=left;spacingLeft=6;overflow=hidden;html=1;whiteSpace=wrap;" vertex="1" parent="GWMP9Vuq-0JOM76LOCVm-103">
          <mxGeometry x="60" width="120" height="30" as="geometry">
            <mxRectangle width="120" height="30" as="alternateBounds" />
          </mxGeometry>
        </mxCell>
        <mxCell id="GWMP9Vuq-0JOM76LOCVm-109" value="" style="edgeStyle=entityRelationEdgeStyle;fontSize=12;html=1;endArrow=ERzeroToMany;startArrow=ERmandOne;rounded=0;" edge="1" parent="1" source="GWMP9Vuq-0JOM76LOCVm-77" target="GWMP9Vuq-0JOM76LOCVm-100">
          <mxGeometry width="100" height="100" relative="1" as="geometry">
            <mxPoint x="540" y="929" as="sourcePoint" />
            <mxPoint x="560" y="625" as="targetPoint" />
          </mxGeometry>
        </mxCell>
        <mxCell id="GWMP9Vuq-0JOM76LOCVm-111" value="User" style="swimlane;fontStyle=0;childLayout=stackLayout;horizontal=1;startSize=26;fillColor=none;horizontalStack=0;resizeParent=1;resizeParentMax=0;resizeLast=0;collapsible=1;marginBottom=0;whiteSpace=wrap;html=1;" vertex="1" parent="1">
          <mxGeometry x="-750" y="160" width="140" height="156" as="geometry" />
        </mxCell>
        <mxCell id="GWMP9Vuq-0JOM76LOCVm-112" value="+ email: string" style="text;strokeColor=none;fillColor=none;align=left;verticalAlign=top;spacingLeft=4;spacingRight=4;overflow=hidden;rotatable=0;points=[[0,0.5],[1,0.5]];portConstraint=eastwest;whiteSpace=wrap;html=1;" vertex="1" parent="GWMP9Vuq-0JOM76LOCVm-111">
          <mxGeometry y="26" width="140" height="26" as="geometry" />
        </mxCell>
        <mxCell id="GWMP9Vuq-0JOM76LOCVm-114" value="+ password: string" style="text;strokeColor=none;fillColor=none;align=left;verticalAlign=top;spacingLeft=4;spacingRight=4;overflow=hidden;rotatable=0;points=[[0,0.5],[1,0.5]];portConstraint=eastwest;whiteSpace=wrap;html=1;" vertex="1" parent="GWMP9Vuq-0JOM76LOCVm-111">
          <mxGeometry y="52" width="140" height="26" as="geometry" />
        </mxCell>
        <mxCell id="GWMP9Vuq-0JOM76LOCVm-175" value="+ firstName: string" style="text;strokeColor=none;fillColor=none;align=left;verticalAlign=top;spacingLeft=4;spacingRight=4;overflow=hidden;rotatable=0;points=[[0,0.5],[1,0.5]];portConstraint=eastwest;whiteSpace=wrap;html=1;" vertex="1" parent="GWMP9Vuq-0JOM76LOCVm-111">
          <mxGeometry y="78" width="140" height="26" as="geometry" />
        </mxCell>
        <mxCell id="GWMP9Vuq-0JOM76LOCVm-176" value="+ lastName: string" style="text;strokeColor=none;fillColor=none;align=left;verticalAlign=top;spacingLeft=4;spacingRight=4;overflow=hidden;rotatable=0;points=[[0,0.5],[1,0.5]];portConstraint=eastwest;whiteSpace=wrap;html=1;" vertex="1" parent="GWMP9Vuq-0JOM76LOCVm-111">
          <mxGeometry y="104" width="140" height="26" as="geometry" />
        </mxCell>
        <mxCell id="GWMP9Vuq-0JOM76LOCVm-177" value="+ role: string" style="text;strokeColor=none;fillColor=none;align=left;verticalAlign=top;spacingLeft=4;spacingRight=4;overflow=hidden;rotatable=0;points=[[0,0.5],[1,0.5]];portConstraint=eastwest;whiteSpace=wrap;html=1;" vertex="1" parent="GWMP9Vuq-0JOM76LOCVm-111">
          <mxGeometry y="130" width="140" height="26" as="geometry" />
        </mxCell>
        <mxCell id="GWMP9Vuq-0JOM76LOCVm-119" value="Product" style="swimlane;fontStyle=0;childLayout=stackLayout;horizontal=1;startSize=26;fillColor=none;horizontalStack=0;resizeParent=1;resizeParentMax=0;resizeLast=0;collapsible=1;marginBottom=0;whiteSpace=wrap;html=1;" vertex="1" parent="1">
          <mxGeometry x="-550" y="563" width="140" height="52" as="geometry" />
        </mxCell>
        <mxCell id="GWMP9Vuq-0JOM76LOCVm-120" value="+ name: string" style="text;strokeColor=none;fillColor=none;align=left;verticalAlign=top;spacingLeft=4;spacingRight=4;overflow=hidden;rotatable=0;points=[[0,0.5],[1,0.5]];portConstraint=eastwest;whiteSpace=wrap;html=1;" vertex="1" parent="GWMP9Vuq-0JOM76LOCVm-119">
          <mxGeometry y="26" width="140" height="26" as="geometry" />
        </mxCell>
        <mxCell id="GWMP9Vuq-0JOM76LOCVm-123" value="Recipe" style="swimlane;fontStyle=0;childLayout=stackLayout;horizontal=1;startSize=26;fillColor=none;horizontalStack=0;resizeParent=1;resizeParentMax=0;resizeLast=0;collapsible=1;marginBottom=0;whiteSpace=wrap;html=1;" vertex="1" parent="1">
          <mxGeometry x="-550" y="360" width="140" height="78" as="geometry" />
        </mxCell>
        <mxCell id="GWMP9Vuq-0JOM76LOCVm-124" value="+ name: string" style="text;strokeColor=none;fillColor=none;align=left;verticalAlign=top;spacingLeft=4;spacingRight=4;overflow=hidden;rotatable=0;points=[[0,0.5],[1,0.5]];portConstraint=eastwest;whiteSpace=wrap;html=1;" vertex="1" parent="GWMP9Vuq-0JOM76LOCVm-123">
          <mxGeometry y="26" width="140" height="26" as="geometry" />
        </mxCell>
        <mxCell id="GWMP9Vuq-0JOM76LOCVm-125" value="+ description: string" style="text;strokeColor=none;fillColor=none;align=left;verticalAlign=top;spacingLeft=4;spacingRight=4;overflow=hidden;rotatable=0;points=[[0,0.5],[1,0.5]];portConstraint=eastwest;whiteSpace=wrap;html=1;" vertex="1" parent="GWMP9Vuq-0JOM76LOCVm-123">
          <mxGeometry y="52" width="140" height="26" as="geometry" />
        </mxCell>
        <mxCell id="GWMP9Vuq-0JOM76LOCVm-127" value="Grocery Item" style="swimlane;fontStyle=0;childLayout=stackLayout;horizontal=1;startSize=26;fillColor=none;horizontalStack=0;resizeParent=1;resizeParentMax=0;resizeLast=0;collapsible=1;marginBottom=0;whiteSpace=wrap;html=1;" vertex="1" parent="1">
          <mxGeometry x="-260" y="406" width="140" height="104" as="geometry" />
        </mxCell>
        <mxCell id="GWMP9Vuq-0JOM76LOCVm-128" value="+ amount: int" style="text;strokeColor=none;fillColor=none;align=left;verticalAlign=top;spacingLeft=4;spacingRight=4;overflow=hidden;rotatable=0;points=[[0,0.5],[1,0.5]];portConstraint=eastwest;whiteSpace=wrap;html=1;" vertex="1" parent="GWMP9Vuq-0JOM76LOCVm-127">
          <mxGeometry y="26" width="140" height="26" as="geometry" />
        </mxCell>
        <mxCell id="GWMP9Vuq-0JOM76LOCVm-129" value="+ expirationDate: date" style="text;strokeColor=none;fillColor=none;align=left;verticalAlign=top;spacingLeft=4;spacingRight=4;overflow=hidden;rotatable=0;points=[[0,0.5],[1,0.5]];portConstraint=eastwest;whiteSpace=wrap;html=1;" vertex="1" parent="GWMP9Vuq-0JOM76LOCVm-127">
          <mxGeometry y="52" width="140" height="26" as="geometry" />
        </mxCell>
        <mxCell id="GWMP9Vuq-0JOM76LOCVm-178" value="+ storage: string" style="text;strokeColor=none;fillColor=none;align=left;verticalAlign=top;spacingLeft=4;spacingRight=4;overflow=hidden;rotatable=0;points=[[0,0.5],[1,0.5]];portConstraint=eastwest;whiteSpace=wrap;html=1;" vertex="1" parent="GWMP9Vuq-0JOM76LOCVm-127">
          <mxGeometry y="78" width="140" height="26" as="geometry" />
        </mxCell>
        <mxCell id="GWMP9Vuq-0JOM76LOCVm-131" value="Role" style="ellipse;whiteSpace=wrap;html=1;align=center;" vertex="1" parent="1">
          <mxGeometry x="1010" y="930" width="100" height="40" as="geometry" />
        </mxCell>
        <mxCell id="GWMP9Vuq-0JOM76LOCVm-132" value="" style="endArrow=none;html=1;rounded=0;" edge="1" parent="1" source="ffhMWzjrMcLxflxruBUi-44" target="GWMP9Vuq-0JOM76LOCVm-131">
          <mxGeometry relative="1" as="geometry">
            <mxPoint x="1183" y="760" as="sourcePoint" />
            <mxPoint x="1155" y="791" as="targetPoint" />
          </mxGeometry>
        </mxCell>
        <mxCell id="GWMP9Vuq-0JOM76LOCVm-134" value="Family" style="whiteSpace=wrap;html=1;align=center;" vertex="1" parent="1">
          <mxGeometry x="1131" y="700" width="100" height="40" as="geometry" />
        </mxCell>
        <mxCell id="GWMP9Vuq-0JOM76LOCVm-135" value="Is Part Of" style="shape=rhombus;perimeter=rhombusPerimeter;whiteSpace=wrap;html=1;align=center;" vertex="1" parent="1">
          <mxGeometry x="1201" y="800" width="120" height="60" as="geometry" />
        </mxCell>
        <mxCell id="GWMP9Vuq-0JOM76LOCVm-136" value="(0,N)" style="endArrow=none;html=1;rounded=0;" edge="1" parent="1" source="GWMP9Vuq-0JOM76LOCVm-135" target="ffhMWzjrMcLxflxruBUi-44">
          <mxGeometry x="0.0077" relative="1" as="geometry">
            <mxPoint x="1281" y="617" as="sourcePoint" />
            <mxPoint x="1217" y="700" as="targetPoint" />
            <mxPoint as="offset" />
          </mxGeometry>
        </mxCell>
        <mxCell id="GWMP9Vuq-0JOM76LOCVm-138" value="(1,N)" style="endArrow=none;html=1;rounded=0;" edge="1" parent="1" source="GWMP9Vuq-0JOM76LOCVm-135" target="GWMP9Vuq-0JOM76LOCVm-134">
          <mxGeometry relative="1" as="geometry">
            <mxPoint x="1191" y="845" as="sourcePoint" />
            <mxPoint x="1191" y="930" as="targetPoint" />
          </mxGeometry>
        </mxCell>
        <mxCell id="GWMP9Vuq-0JOM76LOCVm-139" value="Id" style="ellipse;whiteSpace=wrap;html=1;align=center;fontStyle=4" vertex="1" parent="1">
          <mxGeometry x="1280" y="680" width="100" height="40" as="geometry" />
        </mxCell>
        <mxCell id="GWMP9Vuq-0JOM76LOCVm-140" value="Name" style="ellipse;whiteSpace=wrap;html=1;align=center;" vertex="1" parent="1">
          <mxGeometry x="1280" y="740" width="100" height="40" as="geometry" />
        </mxCell>
        <mxCell id="GWMP9Vuq-0JOM76LOCVm-141" value="" style="endArrow=none;html=1;rounded=0;" edge="1" parent="1" source="GWMP9Vuq-0JOM76LOCVm-134" target="GWMP9Vuq-0JOM76LOCVm-140">
          <mxGeometry relative="1" as="geometry">
            <mxPoint x="1211" y="970" as="sourcePoint" />
            <mxPoint x="1242" y="1001" as="targetPoint" />
          </mxGeometry>
        </mxCell>
        <mxCell id="GWMP9Vuq-0JOM76LOCVm-142" value="" style="endArrow=none;html=1;rounded=0;" edge="1" parent="1" source="GWMP9Vuq-0JOM76LOCVm-134" target="GWMP9Vuq-0JOM76LOCVm-139">
          <mxGeometry relative="1" as="geometry">
            <mxPoint x="1241" y="743" as="sourcePoint" />
            <mxPoint x="1299" y="759" as="targetPoint" />
          </mxGeometry>
        </mxCell>
        <mxCell id="GWMP9Vuq-0JOM76LOCVm-143" value="User" style="shape=table;startSize=30;container=1;collapsible=1;childLayout=tableLayout;fixedRows=1;rowLines=0;fontStyle=1;align=center;resizeLast=1;html=1;" vertex="1" parent="1">
          <mxGeometry x="299" y="950" width="230" height="180" as="geometry" />
        </mxCell>
        <mxCell id="GWMP9Vuq-0JOM76LOCVm-144" value="" style="shape=tableRow;horizontal=0;startSize=0;swimlaneHead=0;swimlaneBody=0;fillColor=none;collapsible=0;dropTarget=0;points=[[0,0.5],[1,0.5]];portConstraint=eastwest;top=0;left=0;right=0;bottom=1;" vertex="1" parent="GWMP9Vuq-0JOM76LOCVm-143">
          <mxGeometry y="30" width="230" height="30" as="geometry" />
        </mxCell>
        <mxCell id="GWMP9Vuq-0JOM76LOCVm-145" value="PK" style="shape=partialRectangle;connectable=0;fillColor=none;top=0;left=0;bottom=0;right=0;fontStyle=1;overflow=hidden;whiteSpace=wrap;html=1;" vertex="1" parent="GWMP9Vuq-0JOM76LOCVm-144">
          <mxGeometry width="50" height="30" as="geometry">
            <mxRectangle width="50" height="30" as="alternateBounds" />
          </mxGeometry>
        </mxCell>
        <mxCell id="GWMP9Vuq-0JOM76LOCVm-146" value="Email" style="shape=partialRectangle;connectable=0;fillColor=none;top=0;left=0;bottom=0;right=0;align=left;spacingLeft=6;fontStyle=5;overflow=hidden;whiteSpace=wrap;html=1;" vertex="1" parent="GWMP9Vuq-0JOM76LOCVm-144">
          <mxGeometry x="50" width="180" height="30" as="geometry">
            <mxRectangle width="180" height="30" as="alternateBounds" />
          </mxGeometry>
        </mxCell>
        <mxCell id="GWMP9Vuq-0JOM76LOCVm-147" value="" style="shape=tableRow;horizontal=0;startSize=0;swimlaneHead=0;swimlaneBody=0;fillColor=none;collapsible=0;dropTarget=0;points=[[0,0.5],[1,0.5]];portConstraint=eastwest;top=0;left=0;right=0;bottom=0;" vertex="1" parent="GWMP9Vuq-0JOM76LOCVm-143">
          <mxGeometry y="60" width="230" height="30" as="geometry" />
        </mxCell>
        <mxCell id="GWMP9Vuq-0JOM76LOCVm-148" value="" style="shape=partialRectangle;connectable=0;fillColor=none;top=0;left=0;bottom=0;right=0;editable=1;overflow=hidden;whiteSpace=wrap;html=1;" vertex="1" parent="GWMP9Vuq-0JOM76LOCVm-147">
          <mxGeometry width="50" height="30" as="geometry">
            <mxRectangle width="50" height="30" as="alternateBounds" />
          </mxGeometry>
        </mxCell>
        <mxCell id="GWMP9Vuq-0JOM76LOCVm-149" value="Password" style="shape=partialRectangle;connectable=0;fillColor=none;top=0;left=0;bottom=0;right=0;align=left;spacingLeft=6;overflow=hidden;whiteSpace=wrap;html=1;" vertex="1" parent="GWMP9Vuq-0JOM76LOCVm-147">
          <mxGeometry x="50" width="180" height="30" as="geometry">
            <mxRectangle width="180" height="30" as="alternateBounds" />
          </mxGeometry>
        </mxCell>
        <mxCell id="GWMP9Vuq-0JOM76LOCVm-160" value="" style="shape=tableRow;horizontal=0;startSize=0;swimlaneHead=0;swimlaneBody=0;fillColor=none;collapsible=0;dropTarget=0;points=[[0,0.5],[1,0.5]];portConstraint=eastwest;top=0;left=0;right=0;bottom=0;" vertex="1" parent="GWMP9Vuq-0JOM76LOCVm-143">
          <mxGeometry y="90" width="230" height="30" as="geometry" />
        </mxCell>
        <mxCell id="GWMP9Vuq-0JOM76LOCVm-161" value="" style="shape=partialRectangle;connectable=0;fillColor=none;top=0;left=0;bottom=0;right=0;editable=1;overflow=hidden;whiteSpace=wrap;html=1;" vertex="1" parent="GWMP9Vuq-0JOM76LOCVm-160">
          <mxGeometry width="50" height="30" as="geometry">
            <mxRectangle width="50" height="30" as="alternateBounds" />
          </mxGeometry>
        </mxCell>
        <mxCell id="GWMP9Vuq-0JOM76LOCVm-162" value="Role" style="shape=partialRectangle;connectable=0;fillColor=none;top=0;left=0;bottom=0;right=0;align=left;spacingLeft=6;overflow=hidden;whiteSpace=wrap;html=1;" vertex="1" parent="GWMP9Vuq-0JOM76LOCVm-160">
          <mxGeometry x="50" width="180" height="30" as="geometry">
            <mxRectangle width="180" height="30" as="alternateBounds" />
          </mxGeometry>
        </mxCell>
        <mxCell id="GWMP9Vuq-0JOM76LOCVm-165" value="" style="shape=tableRow;horizontal=0;startSize=0;swimlaneHead=0;swimlaneBody=0;fillColor=none;collapsible=0;dropTarget=0;points=[[0,0.5],[1,0.5]];portConstraint=eastwest;top=0;left=0;right=0;bottom=0;" vertex="1" parent="GWMP9Vuq-0JOM76LOCVm-143">
          <mxGeometry y="120" width="230" height="30" as="geometry" />
        </mxCell>
        <mxCell id="GWMP9Vuq-0JOM76LOCVm-166" value="" style="shape=partialRectangle;connectable=0;fillColor=none;top=0;left=0;bottom=0;right=0;editable=1;overflow=hidden;whiteSpace=wrap;html=1;" vertex="1" parent="GWMP9Vuq-0JOM76LOCVm-165">
          <mxGeometry width="50" height="30" as="geometry">
            <mxRectangle width="50" height="30" as="alternateBounds" />
          </mxGeometry>
        </mxCell>
        <mxCell id="GWMP9Vuq-0JOM76LOCVm-167" value="First Name" style="shape=partialRectangle;connectable=0;fillColor=none;top=0;left=0;bottom=0;right=0;align=left;spacingLeft=6;overflow=hidden;whiteSpace=wrap;html=1;" vertex="1" parent="GWMP9Vuq-0JOM76LOCVm-165">
          <mxGeometry x="50" width="180" height="30" as="geometry">
            <mxRectangle width="180" height="30" as="alternateBounds" />
          </mxGeometry>
        </mxCell>
        <mxCell id="GWMP9Vuq-0JOM76LOCVm-168" value="" style="shape=tableRow;horizontal=0;startSize=0;swimlaneHead=0;swimlaneBody=0;fillColor=none;collapsible=0;dropTarget=0;points=[[0,0.5],[1,0.5]];portConstraint=eastwest;top=0;left=0;right=0;bottom=0;" vertex="1" parent="GWMP9Vuq-0JOM76LOCVm-143">
          <mxGeometry y="150" width="230" height="30" as="geometry" />
        </mxCell>
        <mxCell id="GWMP9Vuq-0JOM76LOCVm-169" value="" style="shape=partialRectangle;connectable=0;fillColor=none;top=0;left=0;bottom=0;right=0;editable=1;overflow=hidden;whiteSpace=wrap;html=1;" vertex="1" parent="GWMP9Vuq-0JOM76LOCVm-168">
          <mxGeometry width="50" height="30" as="geometry">
            <mxRectangle width="50" height="30" as="alternateBounds" />
          </mxGeometry>
        </mxCell>
        <mxCell id="GWMP9Vuq-0JOM76LOCVm-170" value="Last Name" style="shape=partialRectangle;connectable=0;fillColor=none;top=0;left=0;bottom=0;right=0;align=left;spacingLeft=6;overflow=hidden;whiteSpace=wrap;html=1;" vertex="1" parent="GWMP9Vuq-0JOM76LOCVm-168">
          <mxGeometry x="50" width="180" height="30" as="geometry">
            <mxRectangle width="180" height="30" as="alternateBounds" />
          </mxGeometry>
        </mxCell>
        <mxCell id="GWMP9Vuq-0JOM76LOCVm-150" value="User is part of Family" style="shape=table;startSize=30;container=1;collapsible=1;childLayout=tableLayout;fixedRows=1;rowLines=0;fontStyle=1;align=center;resizeLast=1;html=1;whiteSpace=wrap;" vertex="1" parent="1">
          <mxGeometry x="10" y="830" width="180" height="90" as="geometry" />
        </mxCell>
        <mxCell id="GWMP9Vuq-0JOM76LOCVm-151" value="" style="shape=tableRow;horizontal=0;startSize=0;swimlaneHead=0;swimlaneBody=0;fillColor=none;collapsible=0;dropTarget=0;points=[[0,0.5],[1,0.5]];portConstraint=eastwest;top=0;left=0;right=0;bottom=0;html=1;" vertex="1" parent="GWMP9Vuq-0JOM76LOCVm-150">
          <mxGeometry y="30" width="180" height="30" as="geometry" />
        </mxCell>
        <mxCell id="GWMP9Vuq-0JOM76LOCVm-152" value="PK,FK1" style="shape=partialRectangle;connectable=0;fillColor=none;top=0;left=0;bottom=0;right=0;fontStyle=1;overflow=hidden;html=1;whiteSpace=wrap;" vertex="1" parent="GWMP9Vuq-0JOM76LOCVm-151">
          <mxGeometry width="60" height="30" as="geometry">
            <mxRectangle width="60" height="30" as="alternateBounds" />
          </mxGeometry>
        </mxCell>
        <mxCell id="GWMP9Vuq-0JOM76LOCVm-153" value="FamilyId" style="shape=partialRectangle;connectable=0;fillColor=none;top=0;left=0;bottom=0;right=0;align=left;spacingLeft=6;fontStyle=5;overflow=hidden;html=1;whiteSpace=wrap;" vertex="1" parent="GWMP9Vuq-0JOM76LOCVm-151">
          <mxGeometry x="60" width="120" height="30" as="geometry">
            <mxRectangle width="120" height="30" as="alternateBounds" />
          </mxGeometry>
        </mxCell>
        <mxCell id="GWMP9Vuq-0JOM76LOCVm-154" value="" style="shape=tableRow;horizontal=0;startSize=0;swimlaneHead=0;swimlaneBody=0;fillColor=none;collapsible=0;dropTarget=0;points=[[0,0.5],[1,0.5]];portConstraint=eastwest;top=0;left=0;right=0;bottom=1;html=1;" vertex="1" parent="GWMP9Vuq-0JOM76LOCVm-150">
          <mxGeometry y="60" width="180" height="30" as="geometry" />
        </mxCell>
        <mxCell id="GWMP9Vuq-0JOM76LOCVm-155" value="PK,FK2" style="shape=partialRectangle;connectable=0;fillColor=none;top=0;left=0;bottom=0;right=0;fontStyle=1;overflow=hidden;html=1;whiteSpace=wrap;" vertex="1" parent="GWMP9Vuq-0JOM76LOCVm-154">
          <mxGeometry width="60" height="30" as="geometry">
            <mxRectangle width="60" height="30" as="alternateBounds" />
          </mxGeometry>
        </mxCell>
        <mxCell id="GWMP9Vuq-0JOM76LOCVm-156" value="UserEmail" style="shape=partialRectangle;connectable=0;fillColor=none;top=0;left=0;bottom=0;right=0;align=left;spacingLeft=6;fontStyle=5;overflow=hidden;html=1;whiteSpace=wrap;" vertex="1" parent="GWMP9Vuq-0JOM76LOCVm-154">
          <mxGeometry x="60" width="120" height="30" as="geometry">
            <mxRectangle width="120" height="30" as="alternateBounds" />
          </mxGeometry>
        </mxCell>
        <mxCell id="GWMP9Vuq-0JOM76LOCVm-163" value="" style="edgeStyle=entityRelationEdgeStyle;fontSize=12;html=1;endArrow=ERoneToMany;startArrow=ERmandOne;rounded=0;" edge="1" parent="1" source="GWMP9Vuq-0JOM76LOCVm-144" target="GWMP9Vuq-0JOM76LOCVm-154">
          <mxGeometry width="100" height="100" relative="1" as="geometry">
            <mxPoint x="140" y="861" as="sourcePoint" />
            <mxPoint x="200" y="710" as="targetPoint" />
          </mxGeometry>
        </mxCell>
        <mxCell id="GWMP9Vuq-0JOM76LOCVm-164" value="" style="edgeStyle=entityRelationEdgeStyle;fontSize=12;html=1;endArrow=ERoneToMany;startArrow=ERmandOne;rounded=0;exitX=-0.003;exitY=0.767;exitDx=0;exitDy=0;exitPerimeter=0;" edge="1" parent="1" source="wn_NGkWMPnfutVv6U4E--23" target="GWMP9Vuq-0JOM76LOCVm-151">
          <mxGeometry width="100" height="100" relative="1" as="geometry">
            <mxPoint x="230" y="900" as="sourcePoint" />
            <mxPoint x="170" y="830" as="targetPoint" />
          </mxGeometry>
        </mxCell>
        <mxCell id="GWMP9Vuq-0JOM76LOCVm-171" value="Family" style="swimlane;fontStyle=0;childLayout=stackLayout;horizontal=1;startSize=26;fillColor=none;horizontalStack=0;resizeParent=1;resizeParentMax=0;resizeLast=0;collapsible=1;marginBottom=0;whiteSpace=wrap;html=1;" vertex="1" parent="1">
          <mxGeometry x="-440" y="258" width="140" height="52" as="geometry" />
        </mxCell>
        <mxCell id="GWMP9Vuq-0JOM76LOCVm-172" value="+ field: name" style="text;strokeColor=none;fillColor=none;align=left;verticalAlign=top;spacingLeft=4;spacingRight=4;overflow=hidden;rotatable=0;points=[[0,0.5],[1,0.5]];portConstraint=eastwest;whiteSpace=wrap;html=1;" vertex="1" parent="GWMP9Vuq-0JOM76LOCVm-171">
          <mxGeometry y="26" width="140" height="26" as="geometry" />
        </mxCell>
        <mxCell id="GWMP9Vuq-0JOM76LOCVm-187" value="Is Part Of" style="endArrow=none;html=1;edgeStyle=orthogonalEdgeStyle;rounded=0;" edge="1" parent="1" source="GWMP9Vuq-0JOM76LOCVm-111" target="GWMP9Vuq-0JOM76LOCVm-171">
          <mxGeometry relative="1" as="geometry">
            <mxPoint x="-600" y="310" as="sourcePoint" />
            <mxPoint x="-440" y="310" as="targetPoint" />
          </mxGeometry>
        </mxCell>
        <mxCell id="GWMP9Vuq-0JOM76LOCVm-188" value="1..*" style="edgeLabel;resizable=0;html=1;align=left;verticalAlign=bottom;" connectable="0" vertex="1" parent="GWMP9Vuq-0JOM76LOCVm-187">
          <mxGeometry x="-1" relative="1" as="geometry" />
        </mxCell>
        <mxCell id="GWMP9Vuq-0JOM76LOCVm-189" value="1..*" style="edgeLabel;resizable=0;html=1;align=right;verticalAlign=bottom;" connectable="0" vertex="1" parent="GWMP9Vuq-0JOM76LOCVm-187">
          <mxGeometry x="1" relative="1" as="geometry">
            <mxPoint x="-3" as="offset" />
          </mxGeometry>
        </mxCell>
        <mxCell id="GWMP9Vuq-0JOM76LOCVm-192" value="Stored" style="endArrow=none;html=1;edgeStyle=orthogonalEdgeStyle;rounded=0;" edge="1" parent="1" source="GWMP9Vuq-0JOM76LOCVm-171" target="GWMP9Vuq-0JOM76LOCVm-127">
          <mxGeometry x="0.1762" y="14" relative="1" as="geometry">
            <mxPoint x="-600" y="248" as="sourcePoint" />
            <mxPoint x="-430" y="294" as="targetPoint" />
            <mxPoint x="-14" y="-14" as="offset" />
          </mxGeometry>
        </mxCell>
        <mxCell id="GWMP9Vuq-0JOM76LOCVm-193" value="1" style="edgeLabel;resizable=0;html=1;align=left;verticalAlign=bottom;" connectable="0" vertex="1" parent="GWMP9Vuq-0JOM76LOCVm-192">
          <mxGeometry x="-1" relative="1" as="geometry" />
        </mxCell>
        <mxCell id="GWMP9Vuq-0JOM76LOCVm-194" value="0..*" style="edgeLabel;resizable=0;html=1;align=right;verticalAlign=bottom;" connectable="0" vertex="1" parent="GWMP9Vuq-0JOM76LOCVm-192">
          <mxGeometry x="1" relative="1" as="geometry">
            <mxPoint x="-3" as="offset" />
          </mxGeometry>
        </mxCell>
        <mxCell id="GWMP9Vuq-0JOM76LOCVm-198" value="Pending" style="shape=rhombus;perimeter=rhombusPerimeter;whiteSpace=wrap;html=1;align=center;" vertex="1" parent="1">
          <mxGeometry x="1050" y="800" width="120" height="60" as="geometry" />
        </mxCell>
        <mxCell id="GWMP9Vuq-0JOM76LOCVm-199" value="(0,N)" style="endArrow=none;html=1;rounded=0;" edge="1" parent="1" source="GWMP9Vuq-0JOM76LOCVm-198" target="ffhMWzjrMcLxflxruBUi-44">
          <mxGeometry x="0.0077" relative="1" as="geometry">
            <mxPoint x="1240" y="863" as="sourcePoint" />
            <mxPoint x="1202" y="930" as="targetPoint" />
            <mxPoint as="offset" />
          </mxGeometry>
        </mxCell>
        <mxCell id="GWMP9Vuq-0JOM76LOCVm-200" value="(0,N)" style="endArrow=none;html=1;rounded=0;" edge="1" parent="1" source="GWMP9Vuq-0JOM76LOCVm-134" target="GWMP9Vuq-0JOM76LOCVm-198">
          <mxGeometry x="0.0077" relative="1" as="geometry">
            <mxPoint x="1109" y="861" as="sourcePoint" />
            <mxPoint x="1173" y="930" as="targetPoint" />
            <mxPoint as="offset" />
          </mxGeometry>
        </mxCell>
        <mxCell id="GWMP9Vuq-0JOM76LOCVm-201" value="User Pending to join Family" style="shape=table;startSize=30;container=1;collapsible=1;childLayout=tableLayout;fixedRows=1;rowLines=0;fontStyle=1;align=center;resizeLast=1;html=1;whiteSpace=wrap;" vertex="1" parent="1">
          <mxGeometry x="630" y="850" width="180" height="90" as="geometry" />
        </mxCell>
        <mxCell id="GWMP9Vuq-0JOM76LOCVm-202" value="" style="shape=tableRow;horizontal=0;startSize=0;swimlaneHead=0;swimlaneBody=0;fillColor=none;collapsible=0;dropTarget=0;points=[[0,0.5],[1,0.5]];portConstraint=eastwest;top=0;left=0;right=0;bottom=0;html=1;" vertex="1" parent="GWMP9Vuq-0JOM76LOCVm-201">
          <mxGeometry y="30" width="180" height="30" as="geometry" />
        </mxCell>
        <mxCell id="GWMP9Vuq-0JOM76LOCVm-203" value="PK,FK1" style="shape=partialRectangle;connectable=0;fillColor=none;top=0;left=0;bottom=0;right=0;fontStyle=1;overflow=hidden;html=1;whiteSpace=wrap;" vertex="1" parent="GWMP9Vuq-0JOM76LOCVm-202">
          <mxGeometry width="60" height="30" as="geometry">
            <mxRectangle width="60" height="30" as="alternateBounds" />
          </mxGeometry>
        </mxCell>
        <mxCell id="GWMP9Vuq-0JOM76LOCVm-204" value="FamilyId" style="shape=partialRectangle;connectable=0;fillColor=none;top=0;left=0;bottom=0;right=0;align=left;spacingLeft=6;fontStyle=5;overflow=hidden;html=1;whiteSpace=wrap;" vertex="1" parent="GWMP9Vuq-0JOM76LOCVm-202">
          <mxGeometry x="60" width="120" height="30" as="geometry">
            <mxRectangle width="120" height="30" as="alternateBounds" />
          </mxGeometry>
        </mxCell>
        <mxCell id="GWMP9Vuq-0JOM76LOCVm-205" value="" style="shape=tableRow;horizontal=0;startSize=0;swimlaneHead=0;swimlaneBody=0;fillColor=none;collapsible=0;dropTarget=0;points=[[0,0.5],[1,0.5]];portConstraint=eastwest;top=0;left=0;right=0;bottom=1;html=1;" vertex="1" parent="GWMP9Vuq-0JOM76LOCVm-201">
          <mxGeometry y="60" width="180" height="30" as="geometry" />
        </mxCell>
        <mxCell id="GWMP9Vuq-0JOM76LOCVm-206" value="PK,FK2" style="shape=partialRectangle;connectable=0;fillColor=none;top=0;left=0;bottom=0;right=0;fontStyle=1;overflow=hidden;html=1;whiteSpace=wrap;" vertex="1" parent="GWMP9Vuq-0JOM76LOCVm-205">
          <mxGeometry width="60" height="30" as="geometry">
            <mxRectangle width="60" height="30" as="alternateBounds" />
          </mxGeometry>
        </mxCell>
        <mxCell id="GWMP9Vuq-0JOM76LOCVm-207" value="UserEmail" style="shape=partialRectangle;connectable=0;fillColor=none;top=0;left=0;bottom=0;right=0;align=left;spacingLeft=6;fontStyle=5;overflow=hidden;html=1;whiteSpace=wrap;" vertex="1" parent="GWMP9Vuq-0JOM76LOCVm-205">
          <mxGeometry x="60" width="120" height="30" as="geometry">
            <mxRectangle width="120" height="30" as="alternateBounds" />
          </mxGeometry>
        </mxCell>
        <mxCell id="GWMP9Vuq-0JOM76LOCVm-209" value="" style="edgeStyle=entityRelationEdgeStyle;fontSize=12;html=1;endArrow=ERzeroToMany;startArrow=ERmandOne;rounded=0;" edge="1" parent="1">
          <mxGeometry width="100" height="100" relative="1" as="geometry">
            <mxPoint x="529" y="810" as="sourcePoint" />
            <mxPoint x="628.9999999999998" y="895" as="targetPoint" />
          </mxGeometry>
        </mxCell>
        <mxCell id="GWMP9Vuq-0JOM76LOCVm-210" value="" style="edgeStyle=entityRelationEdgeStyle;fontSize=12;html=1;endArrow=ERzeroToMany;startArrow=ERmandOne;rounded=0;" edge="1" parent="1" source="GWMP9Vuq-0JOM76LOCVm-144" target="GWMP9Vuq-0JOM76LOCVm-205">
          <mxGeometry width="100" height="100" relative="1" as="geometry">
            <mxPoint x="539" y="820" as="sourcePoint" />
            <mxPoint x="638.9999999999998" y="905" as="targetPoint" />
          </mxGeometry>
        </mxCell>
        <mxCell id="GWMP9Vuq-0JOM76LOCVm-211" value="Is Pending to Join" style="endArrow=none;html=1;edgeStyle=orthogonalEdgeStyle;rounded=0;" edge="1" parent="1" source="GWMP9Vuq-0JOM76LOCVm-111" target="GWMP9Vuq-0JOM76LOCVm-171">
          <mxGeometry relative="1" as="geometry">
            <mxPoint x="-600" y="248" as="sourcePoint" />
            <mxPoint x="-430" y="294" as="targetPoint" />
            <Array as="points">
              <mxPoint x="-410" y="170" />
            </Array>
          </mxGeometry>
        </mxCell>
        <mxCell id="GWMP9Vuq-0JOM76LOCVm-212" value="0..*" style="edgeLabel;resizable=0;html=1;align=left;verticalAlign=bottom;" connectable="0" vertex="1" parent="GWMP9Vuq-0JOM76LOCVm-211">
          <mxGeometry x="-1" relative="1" as="geometry">
            <mxPoint x="10" as="offset" />
          </mxGeometry>
        </mxCell>
        <mxCell id="GWMP9Vuq-0JOM76LOCVm-213" value="0..*" style="edgeLabel;resizable=0;html=1;align=right;verticalAlign=bottom;" connectable="0" vertex="1" parent="GWMP9Vuq-0JOM76LOCVm-211">
          <mxGeometry x="1" relative="1" as="geometry">
            <mxPoint x="-3" as="offset" />
          </mxGeometry>
        </mxCell>
        <mxCell id="GWMP9Vuq-0JOM76LOCVm-217" value="of type" style="endArrow=none;html=1;edgeStyle=orthogonalEdgeStyle;rounded=0;" edge="1" parent="1" source="GWMP9Vuq-0JOM76LOCVm-119" target="GWMP9Vuq-0JOM76LOCVm-127">
          <mxGeometry x="0.0465" y="-10" relative="1" as="geometry">
            <mxPoint x="-290" y="294" as="sourcePoint" />
            <mxPoint x="-180" y="416" as="targetPoint" />
            <mxPoint as="offset" />
          </mxGeometry>
        </mxCell>
        <mxCell id="GWMP9Vuq-0JOM76LOCVm-218" value="1" style="edgeLabel;resizable=0;html=1;align=left;verticalAlign=bottom;" connectable="0" vertex="1" parent="GWMP9Vuq-0JOM76LOCVm-217">
          <mxGeometry x="-1" relative="1" as="geometry" />
        </mxCell>
        <mxCell id="GWMP9Vuq-0JOM76LOCVm-219" value="0..*" style="edgeLabel;resizable=0;html=1;align=right;verticalAlign=bottom;" connectable="0" vertex="1" parent="GWMP9Vuq-0JOM76LOCVm-217">
          <mxGeometry x="1" relative="1" as="geometry">
            <mxPoint x="-3" y="20" as="offset" />
          </mxGeometry>
        </mxCell>
        <mxCell id="GWMP9Vuq-0JOM76LOCVm-223" value="saved" style="endArrow=none;html=1;edgeStyle=orthogonalEdgeStyle;rounded=0;" edge="1" parent="1" source="GWMP9Vuq-0JOM76LOCVm-123" target="GWMP9Vuq-0JOM76LOCVm-171">
          <mxGeometry x="0.0465" y="-10" relative="1" as="geometry">
            <mxPoint x="-560.52" y="398" as="sourcePoint" />
            <mxPoint x="-440.52" y="346" as="targetPoint" />
            <mxPoint as="offset" />
          </mxGeometry>
        </mxCell>
        <mxCell id="GWMP9Vuq-0JOM76LOCVm-224" value="0..*" style="edgeLabel;resizable=0;html=1;align=left;verticalAlign=bottom;" connectable="0" vertex="1" parent="GWMP9Vuq-0JOM76LOCVm-223">
          <mxGeometry x="-1" relative="1" as="geometry" />
        </mxCell>
        <mxCell id="GWMP9Vuq-0JOM76LOCVm-225" value="1" style="edgeLabel;resizable=0;html=1;align=right;verticalAlign=bottom;" connectable="0" vertex="1" parent="GWMP9Vuq-0JOM76LOCVm-223">
          <mxGeometry x="1" relative="1" as="geometry">
            <mxPoint x="-3" y="20" as="offset" />
          </mxGeometry>
        </mxCell>
        <mxCell id="GWMP9Vuq-0JOM76LOCVm-226" value="requires" style="endArrow=none;html=1;edgeStyle=orthogonalEdgeStyle;rounded=0;" edge="1" parent="1" source="GWMP9Vuq-0JOM76LOCVm-119" target="GWMP9Vuq-0JOM76LOCVm-123">
          <mxGeometry x="0.0465" y="-10" relative="1" as="geometry">
            <mxPoint x="-730" y="504.48" as="sourcePoint" />
            <mxPoint x="-520" y="429.48" as="targetPoint" />
            <mxPoint as="offset" />
          </mxGeometry>
        </mxCell>
        <mxCell id="GWMP9Vuq-0JOM76LOCVm-227" value="1..*" style="edgeLabel;resizable=0;html=1;align=left;verticalAlign=bottom;" connectable="0" vertex="1" parent="GWMP9Vuq-0JOM76LOCVm-226">
          <mxGeometry x="-1" relative="1" as="geometry" />
        </mxCell>
        <mxCell id="GWMP9Vuq-0JOM76LOCVm-228" value="0..*" style="edgeLabel;resizable=0;html=1;align=right;verticalAlign=bottom;" connectable="0" vertex="1" parent="GWMP9Vuq-0JOM76LOCVm-226">
          <mxGeometry x="1" relative="1" as="geometry">
            <mxPoint x="-3" y="22" as="offset" />
          </mxGeometry>
        </mxCell>
      </root>
    </mxGraphModel>
  </diagram>
</mxfile>
